<?xml version="1.0" encoding="utf-8"?>
<svg class="icon-svg" width="800px" height="800px" viewBox="0 0 24 24" xmlns="http://www.w3.org/2000/svg">
  <style>
    .icon-svg {
      fill: #000000;
      transition: fill 0.3s ease;
    }
    @media (prefers-color-scheme: dark) {
      .icon-svg {
        fill: #ffffff;
		transition: fill 0.3s ease;
      }
    }
  </style>
  <path d="M12 2C6.48 2 2 6.48 2 12C2 17.52 6.48 22 12 22H16C16.55 22 17 21.55 17 21C17 20.45 16.55 20 16 20H12C7.58 20 4 16.42 4 12C4 7.58 7.58 4 12 4C16.42 4 20 7.58 20 12V13.5C20 14.33 19.33 15 18.5 15C17.67 15 17 14.33 17 13.5V12C17 9.24 14.76 7 12 7C9.24 7 7 9.24 7 12C7 14.76 9.24 17 12 17C13.38 17 14.64 16.44 15.54 15.53C16.19 16.42 17.31 17 18.5 17C20.43 17 22 15.43 22 13.5V12C22 6.48 17.52 2 12 2ZM12 15C10.34 15 9 13.66 9 12C9 10.34 10.34 9 12 9C13.66 9 15 10.34 15 12C15 13.66 13.66 15 12 15Z"/>
</svg>